<svg width="375" height="326" viewBox="0 0 375 326" fill="none" xmlns="http://www.w3.org/2000/svg">
<rect width="375" height="282" rx="10" fill="white"/>
<path fill-rule="evenodd" clip-rule="evenodd" d="M264.316 238.071C261.313 241.915 255.756 242.592 251.905 239.583C248.053 236.574 247.365 231.018 250.368 227.174C263.237 210.703 268.919 190.263 266.747 169.874C264.475 148.55 253.798 128.978 236.543 115.497C201.879 88.4144 151.867 94.5044 124.838 129.099C101.758 158.64 102.607 200.13 126.228 228.694C129.342 232.46 128.817 238.031 125.055 241.137C121.293 244.242 115.718 243.707 112.604 239.941C83.7175 205.008 82.6801 154.31 110.891 118.202C143.926 75.9194 205.051 68.4761 247.418 101.577C268.494 118.043 281.559 141.992 284.334 168.036C286.987 192.94 280.034 217.954 264.316 238.071Z" fill="#F3F5F8"/>
<path fill-rule="evenodd" clip-rule="evenodd" d="M113.091 240.632C116.227 244.369 121.804 244.851 125.548 241.709C129.292 238.568 129.786 232.992 126.65 229.255C113.215 213.243 106.823 193.014 108.282 172.561C109.809 151.17 119.796 131.238 136.57 117.163C155.642 101.159 180.617 95.1685 204.482 100.259C209.256 101.278 213.96 98.2327 214.988 93.4581C216.016 88.6835 212.98 83.9874 208.205 82.9689C179.064 76.7526 148.515 84.0805 125.215 103.631C104.727 120.823 92.5058 145.213 90.6418 171.338C88.8593 196.319 96.6815 221.076 113.091 240.632Z" fill="#FFE700"/>
<path fill-rule="evenodd" clip-rule="evenodd" d="M266.124 247.367L263.897 245.431C264.024 245.285 264.15 245.139 264.276 244.993L266.513 246.915C266.384 247.066 266.254 247.217 266.124 247.367ZM279.629 227.71L277.024 226.326C277.114 226.155 277.205 225.984 277.294 225.813L279.907 227.182C279.815 227.358 279.722 227.534 279.629 227.71ZM288.3 205.485L285.449 204.732C285.498 204.544 285.547 204.356 285.595 204.169L288.45 204.906C288.401 205.099 288.35 205.292 288.3 205.485ZM291.682 181.875L288.735 181.787C288.741 181.593 288.746 181.399 288.75 181.206L291.697 181.278C291.692 181.477 291.687 181.676 291.682 181.875ZM289.641 158.081L286.752 158.658C286.713 158.468 286.675 158.278 286.635 158.088L289.521 157.494C289.561 157.69 289.601 157.885 289.641 158.081ZM282.283 135.37L279.601 136.587C279.521 136.411 279.44 136.235 279.358 136.059L282.033 134.826C282.117 135.007 282.2 135.188 282.283 135.37ZM269.945 114.911L267.613 116.709C267.495 116.556 267.376 116.403 267.256 116.25L269.578 114.439C269.701 114.596 269.823 114.753 269.945 114.911ZM253.289 97.7837L251.423 100.061C251.274 99.939 251.125 99.8174 250.975 99.6963L252.829 97.4087C252.982 97.5332 253.136 97.6583 253.289 97.7837ZM233.197 84.8225L231.896 87.4644C231.722 87.3786 231.548 87.2932 231.374 87.2084L232.659 84.5591C232.838 84.6464 233.018 84.7342 233.197 84.8225ZM210.703 76.7797L210.04 79.6496C209.851 79.6055 209.661 79.562 209.471 79.519L210.117 76.6453C210.313 76.6895 210.508 76.7343 210.703 76.7797ZM186.999 74.0533L187.003 76.9999C186.81 76.9998 186.616 77.0002 186.423 77.0011L186.403 74.0545C186.601 74.0535 186.8 74.0531 186.999 74.0533ZM163.259 76.7486L163.928 79.6197C163.739 79.6633 163.55 79.7075 163.362 79.7521L162.676 76.8849C162.87 76.8389 163.065 76.7935 163.259 76.7486ZM140.759 84.745L142.063 87.3904C141.889 87.4757 141.716 87.5615 141.542 87.6478L140.224 85.01C140.402 84.9211 140.581 84.8328 140.759 84.745ZM120.735 97.6239L122.606 99.9041C122.457 100.027 122.307 100.15 122.159 100.273L120.274 98.0037C120.427 97.8766 120.581 97.75 120.735 97.6239ZM104.128 114.741L106.463 116.544C106.345 116.697 106.227 116.851 106.109 117.005L103.764 115.216C103.885 115.057 104.006 114.899 104.128 114.741ZM91.8021 135.183L94.485 136.409C94.4046 136.585 94.3247 136.762 94.2453 136.939L91.5555 135.729C91.6371 135.547 91.7193 135.365 91.8021 135.183ZM84.4776 157.881L87.3681 158.464C87.3303 158.653 87.293 158.843 87.2563 159.032L84.3626 158.466C84.4004 158.271 84.4387 158.076 84.4776 157.881ZM82.4999 181.649L85.4459 181.564C85.4519 181.757 85.4584 181.95 85.4654 182.143L82.5199 182.245C82.5127 182.046 82.506 181.848 82.4999 181.649ZM85.943 205.297L88.7925 204.549C88.8421 204.737 88.8923 204.924 88.9431 205.112L86.0979 205.876C86.0457 205.683 85.994 205.49 85.943 205.297ZM94.6396 227.534L97.2433 226.158C97.3341 226.329 97.4253 226.5 97.517 226.671L94.9213 228.062C94.8269 227.886 94.733 227.71 94.6396 227.534ZM108.162 247.202L110.382 245.269C110.51 245.415 110.637 245.561 110.766 245.707L108.556 247.653C108.424 247.503 108.293 247.353 108.162 247.202Z" fill="#505D6F"/>
<g clip-path="url(#clip0_201_245)" filter="url(#filter0_d_201_245)">
<path fill-rule="evenodd" clip-rule="evenodd" d="M214 110C222.284 110 229 103.284 229 95C229 86.7157 222.284 80 214 80C205.716 80 199 86.7157 199 95C199 103.284 205.716 110 214 110Z" fill="white"/>
<path fill-rule="evenodd" clip-rule="evenodd" d="M211.944 89.4457L212.751 91.2767L208.656 93.1001L210.479 97.1956L208.658 98.0066L206.014 92.0859L211.944 89.4457ZM215.021 100.46L214.214 98.629L218.309 96.8056L216.486 92.7101L218.311 91.8898L220.951 97.8198L215.021 100.46Z" fill="#505D6F"/>
<mask id="mask0_201_245" style="mask-type:luminance" maskUnits="userSpaceOnUse" x="206" y="89" width="15" height="12">
<path fill-rule="evenodd" clip-rule="evenodd" d="M211.944 89.4457L212.751 91.2767L208.656 93.1001L210.479 97.1956L208.658 98.0066L206.014 92.0859L211.944 89.4457ZM215.021 100.46L214.214 98.629L218.309 96.8056L216.486 92.7101L218.311 91.8898L220.951 97.8198L215.021 100.46Z" fill="white"/>
</mask>
<g mask="url(#mask0_201_245)">
</g>
</g>
<path d="M166.588 180.32C166.048 180 165.068 179.72 163.868 179.72C159.588 179.72 156.668 182.68 156.668 187.34C156.668 191.26 159.088 193.3 161.928 193.3C164.788 193.3 166.948 191.4 166.948 188.74C166.948 186.06 165.128 184.38 162.468 184.38C160.948 184.38 159.868 185.1 159.388 185.82C159.688 183.38 161.488 182.1 163.688 182.1C164.508 182.1 165.268 182.32 165.828 182.56L166.588 180.32ZM159.628 188.8C159.628 187.46 160.668 186.64 161.908 186.64C163.168 186.64 164.208 187.46 164.208 188.8C164.208 190.14 163.168 190.98 161.908 190.98C160.708 190.98 159.628 190.12 159.628 188.8ZM170.929 185.04C170.869 184.82 170.829 184.56 170.829 184.32C170.829 183.1 171.509 182.16 172.889 182.16C174.189 182.16 174.849 183 174.849 183.94C174.849 184.84 174.409 185.52 173.309 186.18L171.169 187.46C168.849 188.86 168.129 190.72 168.109 193H177.709V190.62H171.489C171.689 190.12 172.109 189.76 172.609 189.44L175.109 187.92C176.709 186.94 177.629 185.58 177.629 183.9C177.629 181.64 175.849 179.72 172.949 179.72C169.929 179.72 168.209 181.78 168.209 184.06C168.209 184.38 168.269 184.78 168.309 184.96L170.929 185.04ZM187.35 193V187.24C187.35 186.16 188.03 185.3 189.19 185.3C190.39 185.3 190.93 186.1 190.93 187.16V193H193.57V187.24C193.57 186.18 194.25 185.3 195.39 185.3C196.61 185.3 197.13 186.1 197.13 187.16V193H199.71V186.62C199.71 183.98 197.97 182.88 196.15 182.88C194.85 182.88 193.81 183.32 193.03 184.52C192.53 183.46 191.45 182.88 190.11 182.88C189.03 182.88 187.77 183.4 187.23 184.36V183.16H184.69V193H187.35ZM205.064 193V183.16H202.404V193H205.064ZM202.084 179.94C202.084 180.82 202.824 181.56 203.724 181.56C204.644 181.56 205.364 180.82 205.364 179.94C205.364 179.02 204.644 178.28 203.724 178.28C202.824 178.28 202.084 179.02 202.084 179.94ZM210.572 187.34C210.572 186.2 211.252 185.3 212.412 185.3C213.692 185.3 214.232 186.16 214.232 187.26V193H216.892V186.8C216.892 184.64 215.772 182.9 213.332 182.9C212.272 182.9 211.092 183.36 210.492 184.38V183.16H207.912V193H210.572V187.34Z" fill="#505D6F"/>
<path d="M82.5316 41.21C85.0656 41.21 86.5776 39.6 87.0256 37.92L85.4856 37.416C85.1496 38.536 84.1976 39.6 82.5316 39.6C80.8376 39.6 79.2416 38.368 79.2416 36.044C79.2416 33.636 80.8796 32.446 82.5176 32.446C84.1836 32.446 85.1076 33.412 85.4016 34.616L86.9836 34.084C86.5356 32.348 85.0376 30.864 82.5176 30.864C79.9416 30.864 77.5196 32.81 77.5196 36.044C77.5196 39.278 79.8576 41.21 82.5316 41.21ZM91.3409 39.754C90.3469 39.754 89.4369 38.998 89.4369 37.584C89.4369 36.17 90.3469 35.442 91.3409 35.442C92.3489 35.442 93.2449 36.17 93.2449 37.584C93.2449 39.012 92.3489 39.754 91.3409 39.754ZM91.3409 33.972C89.3109 33.972 87.8129 35.498 87.8129 37.584C87.8129 39.684 89.3109 41.21 91.3409 41.21C93.3849 41.21 94.8829 39.684 94.8829 37.584C94.8829 35.498 93.3849 33.972 91.3409 33.972ZM98.0623 41V36.954C98.0623 36.086 98.6083 35.442 99.4763 35.442C100.4 35.442 100.792 36.058 100.792 36.842V41H102.388V36.954C102.388 36.114 102.948 35.442 103.802 35.442C104.712 35.442 105.118 36.044 105.118 36.842V41H106.686V36.576C106.686 34.77 105.51 33.986 104.278 33.986C103.396 33.986 102.598 34.294 102.066 35.19C101.702 34.392 100.918 33.986 100.022 33.986C99.2523 33.986 98.3983 34.35 98.0063 35.05V34.182H96.4523V41H98.0623ZM110.285 43.66V40.23C110.635 40.748 111.377 41.168 112.357 41.168C114.317 41.168 115.563 39.628 115.563 37.584C115.563 35.568 114.429 34.028 112.413 34.028C111.363 34.028 110.579 34.518 110.243 35.106V34.182H108.675V43.66H110.285ZM113.939 37.584C113.939 38.886 113.183 39.726 112.105 39.726C111.041 39.726 110.271 38.886 110.271 37.584C110.271 36.31 111.041 35.47 112.105 35.47C113.197 35.47 113.939 36.31 113.939 37.584ZM118.748 41V30.864H117.124V41H118.748ZM121.977 36.842C122.033 36.114 122.621 35.33 123.643 35.33C124.763 35.33 125.295 36.044 125.323 36.842H121.977ZM125.505 38.62C125.281 39.292 124.777 39.81 123.797 39.81C122.789 39.81 121.977 39.068 121.935 38.032H126.919C126.933 38.004 126.961 37.78 126.961 37.514C126.961 35.358 125.729 33.972 123.629 33.972C121.907 33.972 120.311 35.4 120.311 37.556C120.311 39.866 121.949 41.21 123.797 41.21C125.435 41.21 126.513 40.244 126.877 39.054L125.505 38.62ZM130.123 41V36.954C130.123 36.086 130.669 35.442 131.537 35.442C132.461 35.442 132.853 36.058 132.853 36.842V41H134.449V36.954C134.449 36.114 135.009 35.442 135.863 35.442C136.773 35.442 137.179 36.044 137.179 36.842V41H138.747V36.576C138.747 34.77 137.571 33.986 136.339 33.986C135.457 33.986 134.659 34.294 134.127 35.19C133.763 34.392 132.979 33.986 132.083 33.986C131.313 33.986 130.459 34.35 130.067 35.05V34.182H128.513V41H130.123ZM141.87 36.842C141.926 36.114 142.514 35.33 143.536 35.33C144.656 35.33 145.188 36.044 145.216 36.842H141.87ZM145.398 38.62C145.174 39.292 144.67 39.81 143.69 39.81C142.682 39.81 141.87 39.068 141.828 38.032H146.812C146.826 38.004 146.854 37.78 146.854 37.514C146.854 35.358 145.622 33.972 143.522 33.972C141.8 33.972 140.204 35.4 140.204 37.556C140.204 39.866 141.842 41.21 143.69 41.21C145.328 41.21 146.406 40.244 146.77 39.054L145.398 38.62ZM150.029 37.066C150.029 36.17 150.519 35.456 151.443 35.456C152.465 35.456 152.843 36.128 152.843 36.968V41H154.467V36.688C154.467 35.19 153.669 33.986 152.003 33.986C151.247 33.986 150.435 34.308 149.987 35.092V34.182H148.405V41H150.029V37.066ZM158.503 32.096H157.033V33.118C157.033 33.72 156.711 34.182 155.983 34.182H155.633V35.624H156.893V39.054C156.893 40.328 157.677 41.084 158.937 41.084C159.525 41.084 159.833 40.972 159.931 40.93V39.586C159.861 39.6 159.595 39.642 159.371 39.642C158.769 39.642 158.503 39.39 158.503 38.788V35.624H159.917V34.182H158.503V32.096ZM161.179 39.152C161.179 40.23 162.061 41.21 163.489 41.21C164.595 41.21 165.267 40.65 165.589 40.132C165.589 40.678 165.645 40.958 165.659 41H167.171C167.157 40.93 167.087 40.524 167.087 39.908V36.52C167.087 35.162 166.289 33.972 164.189 33.972C162.509 33.972 161.445 35.022 161.319 36.198L162.803 36.534C162.873 35.848 163.349 35.302 164.203 35.302C165.099 35.302 165.491 35.764 165.491 36.338C165.491 36.576 165.379 36.772 164.987 36.828L163.237 37.094C162.075 37.262 161.179 37.934 161.179 39.152ZM163.797 39.936C163.153 39.936 162.803 39.516 162.803 39.054C162.803 38.494 163.209 38.214 163.713 38.13L165.491 37.864V38.172C165.491 39.502 164.707 39.936 163.797 39.936ZM173.04 34.14C172.97 34.126 172.802 34.098 172.606 34.098C171.71 34.098 170.954 34.532 170.632 35.274V34.182H169.05V41H170.674V37.752C170.674 36.478 171.248 35.75 172.508 35.75C172.676 35.75 172.858 35.764 173.04 35.792V34.14ZM176.714 43.758L181.054 34.182H179.332L177.498 38.494L175.538 34.182H173.704L176.616 40.188L174.978 43.758H176.714ZM188.74 32.25C189.048 32.25 189.23 32.292 189.328 32.32V30.934C189.216 30.878 188.88 30.794 188.474 30.794C187.074 30.794 186.094 31.718 186.094 33.244V34.182H184.904V35.596H186.094V41H187.732V35.596H189.314V34.182H187.732V33.286C187.732 32.446 188.306 32.25 188.74 32.25ZM191.539 36.842C191.595 36.114 192.183 35.33 193.205 35.33C194.325 35.33 194.857 36.044 194.885 36.842H191.539ZM195.067 38.62C194.843 39.292 194.339 39.81 193.359 39.81C192.351 39.81 191.539 39.068 191.497 38.032H196.481C196.495 38.004 196.523 37.78 196.523 37.514C196.523 35.358 195.291 33.972 193.191 33.972C191.469 33.972 189.873 35.4 189.873 37.556C189.873 39.866 191.511 41.21 193.359 41.21C194.997 41.21 196.075 40.244 196.439 39.054L195.067 38.62ZM199.209 36.842C199.265 36.114 199.853 35.33 200.875 35.33C201.995 35.33 202.527 36.044 202.555 36.842H199.209ZM202.737 38.62C202.513 39.292 202.009 39.81 201.029 39.81C200.021 39.81 199.209 39.068 199.167 38.032H204.151C204.165 38.004 204.193 37.78 204.193 37.514C204.193 35.358 202.961 33.972 200.861 33.972C199.139 33.972 197.543 35.4 197.543 37.556C197.543 39.866 199.181 41.21 201.029 41.21C202.667 41.21 203.745 40.244 204.109 39.054L202.737 38.62ZM206.837 37.57C206.837 36.268 207.621 35.442 208.685 35.442C209.749 35.442 210.477 36.254 210.477 37.556C210.477 38.858 209.735 39.74 208.671 39.74C207.565 39.74 206.837 38.872 206.837 37.57ZM212.045 30.864H210.463V34.98C210.253 34.546 209.651 34 208.461 34C206.543 34 205.213 35.61 205.213 37.57C205.213 39.628 206.529 41.168 208.489 41.168C209.455 41.168 210.169 40.692 210.491 40.118C210.491 40.398 210.533 40.846 210.561 41H212.115C212.101 40.888 212.045 40.37 212.045 39.754V30.864ZM215.777 41V34.182H214.167V41H215.777ZM213.915 31.788C213.915 32.376 214.391 32.838 214.965 32.838C215.553 32.838 216.029 32.376 216.029 31.788C216.029 31.2 215.553 30.724 214.965 30.724C214.391 30.724 213.915 31.2 213.915 31.788ZM219.496 37.066C219.496 36.17 219.986 35.456 220.91 35.456C221.932 35.456 222.31 36.128 222.31 36.968V41H223.934V36.688C223.934 35.19 223.136 33.986 221.47 33.986C220.714 33.986 219.902 34.308 219.454 35.092V34.182H217.872V41H219.496V37.066ZM225.421 41.378C225.603 42.75 226.863 43.87 228.669 43.87C231.231 43.87 232.169 42.176 232.169 40.356V34.182H230.601V35.05C230.307 34.49 229.649 34.056 228.585 34.056C226.709 34.056 225.435 35.554 225.435 37.374C225.435 39.292 226.765 40.692 228.585 40.692C229.579 40.692 230.265 40.23 230.559 39.698V40.412C230.559 41.798 229.915 42.456 228.627 42.456C227.689 42.456 227.031 41.826 226.919 40.986L225.421 41.378ZM228.851 39.306C227.787 39.306 227.073 38.564 227.073 37.374C227.073 36.212 227.815 35.456 228.851 35.456C229.859 35.456 230.601 36.212 230.601 37.374C230.601 38.55 229.887 39.306 228.851 39.306ZM237.026 39.152C237.11 39.922 237.866 41.21 239.84 41.21C241.576 41.21 242.416 40.062 242.416 39.026C242.416 38.018 241.744 37.234 240.456 36.954L239.42 36.744C239 36.66 238.734 36.394 238.734 36.03C238.734 35.61 239.14 35.246 239.714 35.246C240.624 35.246 240.918 35.876 240.974 36.268L242.346 35.876C242.234 35.204 241.618 33.972 239.714 33.972C238.3 33.972 237.208 34.98 237.208 36.17C237.208 37.108 237.838 37.892 239.042 38.158L240.05 38.382C240.596 38.494 240.848 38.774 240.848 39.138C240.848 39.558 240.498 39.922 239.826 39.922C238.958 39.922 238.496 39.376 238.44 38.76L237.026 39.152ZM246.954 35.47C247.99 35.47 248.452 36.142 248.606 36.744L250.062 36.212C249.782 35.12 248.774 33.972 246.94 33.972C244.98 33.972 243.454 35.484 243.454 37.584C243.454 39.656 244.98 41.21 246.982 41.21C248.774 41.21 249.796 40.048 250.118 38.984L248.69 38.466C248.536 38.984 248.046 39.726 246.982 39.726C245.96 39.726 245.078 38.956 245.078 37.584C245.078 36.212 245.96 35.47 246.954 35.47ZM253.184 36.996C253.212 36.128 253.702 35.456 254.598 35.456C255.62 35.456 255.998 36.128 255.998 36.968V41H257.622V36.688C257.622 35.19 256.81 33.986 255.13 33.986C254.416 33.986 253.646 34.238 253.184 34.84V30.864H251.56V41H253.184V36.996ZM260.733 36.842C260.789 36.114 261.377 35.33 262.399 35.33C263.519 35.33 264.051 36.044 264.079 36.842H260.733ZM264.261 38.62C264.037 39.292 263.533 39.81 262.553 39.81C261.545 39.81 260.733 39.068 260.691 38.032H265.675C265.689 38.004 265.717 37.78 265.717 37.514C265.717 35.358 264.485 33.972 262.385 33.972C260.663 33.972 259.067 35.4 259.067 37.556C259.067 39.866 260.705 41.21 262.553 41.21C264.191 41.21 265.269 40.244 265.633 39.054L264.261 38.62ZM268.361 37.57C268.361 36.268 269.145 35.442 270.209 35.442C271.273 35.442 272.001 36.254 272.001 37.556C272.001 38.858 271.259 39.74 270.195 39.74C269.089 39.74 268.361 38.872 268.361 37.57ZM273.569 30.864H271.987V34.98C271.777 34.546 271.175 34 269.985 34C268.067 34 266.737 35.61 266.737 37.57C266.737 39.628 268.053 41.168 270.013 41.168C270.979 41.168 271.693 40.692 272.015 40.118C272.015 40.398 272.057 40.846 272.085 41H273.639C273.625 40.888 273.569 40.37 273.569 39.754V30.864ZM280.088 40.244C280.088 40.524 280.116 40.846 280.144 41H281.698C281.67 40.748 281.628 40.314 281.628 39.754V34.182H280.004V38.214C280.004 39.11 279.514 39.74 278.576 39.74C277.596 39.74 277.204 39.026 277.204 38.186V34.182H275.58V38.48C275.58 39.992 276.532 41.196 278.156 41.196C278.954 41.196 279.752 40.86 280.088 40.244ZM285.354 41V30.864H283.73V41H285.354ZM288.582 36.842C288.638 36.114 289.226 35.33 290.248 35.33C291.368 35.33 291.9 36.044 291.928 36.842H288.582ZM292.11 38.62C291.886 39.292 291.382 39.81 290.402 39.81C289.394 39.81 288.582 39.068 288.54 38.032H293.524C293.538 38.004 293.566 37.78 293.566 37.514C293.566 35.358 292.334 33.972 290.234 33.972C288.512 33.972 286.916 35.4 286.916 37.556C286.916 39.866 288.554 41.21 290.402 41.21C292.04 41.21 293.118 40.244 293.482 39.054L292.11 38.62Z" fill="#505D6F"/>
<defs>
<filter id="filter0_d_201_245" x="191" y="75" width="46" height="46" filterUnits="userSpaceOnUse" color-interpolation-filters="sRGB">
<feFlood flood-opacity="0" result="BackgroundImageFix"/>
<feColorMatrix in="SourceAlpha" type="matrix" values="0 0 0 0 0 0 0 0 0 0 0 0 0 0 0 0 0 0 127 0" result="hardAlpha"/>
<feOffset dy="3"/>
<feGaussianBlur stdDeviation="4"/>
<feColorMatrix type="matrix" values="0 0 0 0 0.439216 0 0 0 0 0.470588 0 0 0 0 0.529412 0 0 0 0.24 0"/>
<feBlend mode="normal" in2="BackgroundImageFix" result="effect1_dropShadow_201_245"/>
<feBlend mode="normal" in="SourceGraphic" in2="effect1_dropShadow_201_245" result="shape"/>
</filter>
<clipPath id="clip0_201_245">
<rect width="30" height="30" fill="white" transform="translate(199 80)"/>
</clipPath>
</defs>
</svg>
